<svg version="1.1" id="Layer_1" xmlns="http://www.w3.org/2000/svg" xmlns:xlink="http://www.w3.org/1999/xlink" x="0px" y="0px"
	 width="100%" viewBox="0 0 912 338" enable-background="new 0 0 912 338" xml:space="preserve">
<path fill="#020202" opacity="1.000000" stroke="none" 
	d="
M563.000000,339.000000 
	C375.333344,339.000000 188.166672,339.000000 1.000000,339.000000 
	C1.000000,226.333328 1.000000,113.666664 1.000000,1.000000 
	C305.000000,1.000000 609.000000,1.000000 913.000000,1.000000 
	C913.000000,113.666664 913.000000,226.333328 913.000000,339.000000 
	C796.500000,339.000000 680.000000,339.000000 563.000000,339.000000 
M799.019897,232.026886 
	C799.019897,232.026886 799.063477,232.087814 798.388306,231.360489 
	C798.938416,221.783478 799.488464,212.206482 800.048340,202.458496 
	C791.124634,202.458496 782.717224,202.458496 773.579041,202.458496 
	C774.469604,224.481995 775.347412,246.187881 776.241394,268.296082 
	C783.073975,268.296082 789.598572,267.749725 795.987854,268.445709 
	C802.727783,269.179901 805.934448,266.836243 808.321167,260.475555 
	C811.704102,251.459671 816.455994,242.957458 820.622803,234.235718 
	C821.137085,234.361404 821.651306,234.487091 822.165527,234.612778 
	C822.165527,245.666550 822.165527,256.720306 822.165527,268.208710 
	C831.367432,268.208710 839.824402,268.305176 848.272949,268.082520 
	C849.290710,268.055725 850.580078,266.474304 851.209045,265.321716 
	C861.568726,246.336166 871.852234,227.308975 882.120605,208.273773 
	C883.112610,206.434982 883.892395,204.481720 885.000061,202.085449 
	C876.435547,202.085449 868.612915,202.250244 860.803589,201.999786 
	C857.907043,201.906876 856.879395,203.107666 855.767700,205.490997 
	C851.106018,215.485657 846.187317,225.360474 841.362732,235.279160 
	C841.050964,235.221878 840.739136,235.164581 840.427368,235.107300 
	C840.427368,224.257294 840.427368,213.407303 840.427368,202.231201 
	C837.903137,202.231201 835.929260,202.206070 833.956177,202.235992 
	C828.313965,202.321533 821.535522,200.534500 817.342224,203.049301 
	C812.948792,205.684204 811.064453,212.473938 808.032959,217.416718 
	C805.045044,222.288239 801.993896,227.120926 799.019897,232.026886 
M98.682465,249.617371 
	C105.252457,257.757996 113.705475,262.596619 124.062134,264.111298 
	C151.921204,268.185608 174.783829,258.998383 191.962692,237.034485 
	C210.404861,213.455383 214.625656,185.906235 210.546265,157.083542 
	C207.873825,138.201660 198.689774,122.881851 179.428894,116.581635 
	C159.741394,110.141853 141.280472,112.630188 125.357742,127.014572 
	C124.450241,127.834404 123.406754,128.503708 121.739075,129.761627 
	C126.879013,106.504692 131.820251,84.146843 136.844345,61.414074 
	C118.045334,61.414074 99.782204,61.414074 81.339348,61.414074 
	C80.858688,63.498692 80.391342,65.423965 79.971947,67.359634 
	C72.784279,100.533905 65.644279,133.718567 58.408749,166.882401 
	C49.612904,207.197876 40.715107,247.491135 31.977766,287.819214 
	C31.622118,289.460754 32.454861,291.359772 32.775360,293.402985 
	C49.865574,284.778381 65.669052,276.190247 82.018562,268.812073 
	C90.136414,265.148651 95.688118,260.871857 95.658554,251.440628 
	C95.655502,250.467560 96.048256,249.493225 96.257362,248.519485 
	C96.904182,248.699524 97.551003,248.879578 98.682465,249.617371 
M226.121780,235.315750 
	C234.399643,248.227234 246.237396,256.322998 260.654694,261.016541 
	C272.419769,264.846680 284.513031,265.415131 296.721680,264.866699 
	C340.828918,262.885345 372.478149,233.512161 377.564697,189.888138 
	C381.067291,159.849014 368.045319,134.229080 343.129028,121.305542 
	C316.006439,107.237648 268.459076,110.540848 242.764465,135.787567 
	C215.756165,162.325058 208.220520,203.392715 226.121780,235.315750 
M566.817810,58.401711 
	C567.190430,56.353447 567.563049,54.305183 568.064453,51.548855 
	C552.186035,58.300644 537.311157,65.461670 521.837769,70.928925 
	C510.384644,74.975685 504.285675,81.334816 503.557129,93.714775 
	C503.118042,101.176460 500.602631,108.515953 498.958954,116.196609 
	C490.957214,116.196609 483.700012,116.196609 476.492004,116.196609 
	C473.043793,132.369202 469.694244,148.079239 466.264282,164.166260 
	C473.651062,164.166260 480.596375,164.166260 487.855499,164.166260 
	C486.008575,172.793655 484.091858,181.042374 482.500366,189.353378 
	C480.342133,200.624054 477.991638,211.885330 476.520935,223.253784 
	C474.339539,240.115921 480.215271,252.649673 493.225464,258.474091 
	C512.430664,267.071930 532.248413,267.280670 552.127991,260.806671 
	C553.563904,260.339050 555.232361,257.848633 555.271545,256.261200 
	C555.591858,243.277069 555.556519,230.283997 555.593689,217.293549 
	C555.594910,216.874298 555.215210,216.453964 554.962097,215.928085 
	C551.264648,215.928085 547.593445,216.159882 543.961975,215.878708 
	C536.901978,215.332092 533.868896,212.030304 534.970276,205.025131 
	C537.108948,191.421936 539.811340,177.907379 542.301758,164.237885 
	C552.438049,164.237885 562.025574,164.237885 572.024658,164.237885 
	C575.538086,148.280319 579.045898,132.348633 582.697327,115.764297 
	C572.789795,115.764297 563.751404,115.764297 554.023743,115.764297 
	C558.307861,96.494804 562.453857,77.846161 566.817810,58.401711 
M461.525574,124.092468 
	C466.142029,103.040878 470.758453,81.989281 475.513611,60.305111 
	C458.612579,60.305111 442.467072,60.589272 426.341431,60.147999 
	C420.840942,59.997482 419.163635,61.761467 418.077911,66.952682 
	C407.043488,119.711159 395.705078,172.406036 384.465668,225.121674 
	C381.874847,237.273346 379.336945,249.436310 376.688965,262.000824 
	C394.768372,262.000824 412.225647,262.061829 429.679810,261.857880 
	C430.794495,261.844849 432.606201,259.933228 432.882690,258.644897 
	C442.445892,214.084045 451.863068,169.491837 461.525574,124.092468 
M624.251587,229.707794 
	C621.452393,242.337418 618.653198,254.967041 615.768066,267.984467 
	C624.966003,267.984467 633.681946,267.984467 642.540894,267.984467 
	C643.733582,262.167664 644.859863,256.644012 645.999756,251.123169 
	C647.580444,243.467056 648.933594,235.753220 650.839355,228.178635 
	C652.163208,222.917252 658.084167,220.136520 663.635986,221.666336 
	C669.440735,223.265839 667.668579,227.569443 666.977234,231.442001 
	C666.801880,232.424088 666.546570,233.391861 666.329102,234.366455 
	C663.841553,245.514160 661.354370,256.661926 658.739929,268.379089 
	C664.684448,268.379089 669.971130,268.372131 675.257751,268.380676 
	C684.404968,268.395447 684.601318,268.445343 686.709595,259.425598 
	C689.813904,246.144852 692.955688,232.855286 695.417236,219.447525 
	C697.335999,208.996140 692.499573,202.641327 682.236694,200.943268 
	C679.162903,200.434677 675.804382,200.058319 672.847900,200.762177 
	C666.827026,202.195572 660.991089,204.405167 655.104553,206.286743 
	C655.063416,205.524368 654.987305,204.113266 654.895325,202.408661 
	C647.369141,202.408661 640.061584,202.286819 632.767822,202.548248 
	C631.747375,202.584824 630.214417,204.355270 629.904602,205.573792 
	C627.937744,213.308746 626.248047,221.114151 624.251587,229.707794 
M743.889099,201.516449 
	C715.794617,198.815063 699.069519,212.921112 698.249084,240.009430 
	C697.811462,254.457123 706.041504,265.018433 720.172852,267.974243 
	C729.775513,269.982788 739.371033,269.829651 748.870972,267.294952 
	C752.271301,266.387665 755.606445,265.236511 759.188110,264.129669 
	C755.774536,258.422699 752.810364,253.467072 749.913086,248.623245 
	C734.469788,253.714386 726.121155,252.013290 725.312744,243.213409 
	C738.882080,243.213409 752.409973,243.213409 766.072266,243.213409 
	C766.404602,237.724976 766.850952,232.910492 766.959167,228.088425 
	C767.294067,213.170685 759.520630,203.981598 743.889099,201.516449 
M610.988770,249.998840 
	C608.831543,242.922241 604.620544,239.359589 597.994751,239.005402 
	C590.224121,238.590012 583.764771,242.521286 580.902893,249.407776 
	C577.548828,257.478516 581.176331,265.408722 589.464661,268.125183 
	C600.902649,271.873901 610.773621,263.962952 610.988770,249.998840 
z"/>
<path fill="#FDFDFD" opacity="1.000000" stroke="none" 
	d="
M98.440140,249.338501 
	C97.551003,248.879578 96.904182,248.699524 96.257355,248.519485 
	C96.048256,249.493225 95.655502,250.467560 95.658554,251.440628 
	C95.688118,260.871857 90.136414,265.148651 82.018562,268.812073 
	C65.669052,276.190247 49.865574,284.778381 32.775360,293.402985 
	C32.454861,291.359772 31.622118,289.460754 31.977766,287.819214 
	C40.715107,247.491135 49.612904,207.197876 58.408749,166.882401 
	C65.644279,133.718567 72.784279,100.533905 79.971947,67.359634 
	C80.391342,65.423965 80.858688,63.498692 81.339348,61.414074 
	C99.782204,61.414074 118.045334,61.414074 136.844345,61.414074 
	C131.820251,84.146843 126.879013,106.504692 121.739075,129.761627 
	C123.406754,128.503708 124.450241,127.834404 125.357742,127.014572 
	C141.280472,112.630188 159.741394,110.141853 179.428894,116.581635 
	C198.689774,122.881851 207.873825,138.201660 210.546265,157.083542 
	C214.625656,185.906235 210.404861,213.455383 191.962692,237.034485 
	C174.783829,258.998383 151.921204,268.185608 124.062134,264.111298 
	C113.705475,262.596619 105.252457,257.757996 98.440140,249.338501 
M150.113480,204.510330 
	C155.134918,196.737854 156.730728,188.251144 155.000580,179.225769 
	C152.966507,168.614990 144.661728,162.158264 133.118347,161.908493 
	C120.925507,161.644653 112.596962,167.392807 110.045250,178.172760 
	C108.055794,186.577347 106.562195,195.100250 104.524872,203.492081 
	C103.694809,206.911148 105.104698,208.746201 107.520569,210.625198 
	C117.321930,218.248474 140.643005,219.243362 150.113480,204.510330 
z"/>
<path fill="#FDFDFD" opacity="1.000000" stroke="none" 
	d="
M225.942963,234.999878 
	C208.220520,203.392715 215.756165,162.325058 242.764465,135.787567 
	C268.459076,110.540848 316.006439,107.237648 343.129028,121.305542 
	C368.045319,134.229080 381.067291,159.849014 377.564697,189.888138 
	C372.478149,233.512161 340.828918,262.885345 296.721680,264.866699 
	C284.513031,265.415131 272.419769,264.846680 260.654694,261.016541 
	C246.237396,256.322998 234.399643,248.227234 225.942963,234.999878 
M318.595062,199.948410 
	C319.707733,194.104279 321.661530,188.273499 321.754547,182.413177 
	C321.937073,170.913757 313.533813,162.735458 302.096222,161.978973 
	C293.506348,161.410843 286.394897,164.353470 280.864655,170.896011 
	C273.191742,179.973419 270.715637,190.642776 272.256805,202.188141 
	C273.000916,207.762451 276.338989,211.810181 281.687073,214.172653 
	C295.933685,220.465973 311.041382,214.921677 318.595062,199.948410 
z"/>
<path fill="#FDFDFD" opacity="1.000000" stroke="none" 
	d="
M566.708862,58.799614 
	C562.453857,77.846161 558.307861,96.494804 554.023743,115.764297 
	C563.751404,115.764297 572.789795,115.764297 582.697327,115.764297 
	C579.045898,132.348633 575.538086,148.280319 572.024658,164.237885 
	C562.025574,164.237885 552.438049,164.237885 542.301758,164.237885 
	C539.811340,177.907379 537.108948,191.421936 534.970276,205.025131 
	C533.868896,212.030304 536.901978,215.332092 543.961975,215.878708 
	C547.593445,216.159882 551.264648,215.928085 554.962097,215.928085 
	C555.215210,216.453964 555.594910,216.874298 555.593689,217.293549 
	C555.556519,230.283997 555.591858,243.277069 555.271545,256.261200 
	C555.232361,257.848633 553.563904,260.339050 552.127991,260.806671 
	C532.248413,267.280670 512.430664,267.071930 493.225464,258.474091 
	C480.215271,252.649673 474.339539,240.115921 476.520935,223.253784 
	C477.991638,211.885330 480.342133,200.624054 482.500366,189.353378 
	C484.091858,181.042374 486.008575,172.793655 487.855499,164.166260 
	C480.596375,164.166260 473.651062,164.166260 466.264282,164.166260 
	C469.694244,148.079239 473.043793,132.369202 476.492004,116.196609 
	C483.700012,116.196609 490.957214,116.196609 498.958954,116.196609 
	C500.602631,108.515953 503.118042,101.176460 503.557129,93.714775 
	C504.285675,81.334816 510.384644,74.975685 521.837769,70.928925 
	C537.311157,65.461670 552.186035,58.300644 568.064453,51.548855 
	C567.563049,54.305183 567.190430,56.353447 566.708862,58.799614 
z"/>
<path fill="#FCFCFC" opacity="1.000000" stroke="none" 
	d="
M461.413330,124.498283 
	C451.863068,169.491837 442.445892,214.084045 432.882690,258.644897 
	C432.606201,259.933228 430.794495,261.844849 429.679810,261.857880 
	C412.225647,262.061829 394.768372,262.000824 376.688965,262.000824 
	C379.336945,249.436310 381.874847,237.273346 384.465668,225.121674 
	C395.705078,172.406036 407.043488,119.711159 418.077911,66.952682 
	C419.163635,61.761467 420.840942,59.997482 426.341431,60.147999 
	C442.467072,60.589272 458.612579,60.305111 475.513611,60.305111 
	C470.758453,81.989281 466.142029,103.040878 461.413330,124.498283 
z"/>
<path fill="#FAFBFB" opacity="1.000000" stroke="none" 
	d="
M798.970520,231.970673 
	C801.993896,227.120926 805.045044,222.288239 808.032959,217.416718 
	C811.064453,212.473938 812.948792,205.684204 817.342224,203.049301 
	C821.535522,200.534500 828.313965,202.321533 833.956177,202.235992 
	C835.929260,202.206070 837.903137,202.231201 840.427368,202.231201 
	C840.427368,213.407303 840.427368,224.257294 840.427368,235.107300 
	C840.739136,235.164581 841.050964,235.221878 841.362732,235.279160 
	C846.187317,225.360474 851.106018,215.485657 855.767700,205.490997 
	C856.879395,203.107666 857.907043,201.906876 860.803589,201.999786 
	C868.612915,202.250244 876.435547,202.085449 885.000061,202.085449 
	C883.892395,204.481720 883.112610,206.434982 882.120605,208.273773 
	C871.852234,227.308975 861.568726,246.336166 851.209045,265.321716 
	C850.580078,266.474304 849.290710,268.055725 848.272949,268.082520 
	C839.824402,268.305176 831.367432,268.208710 822.165527,268.208710 
	C822.165527,256.720306 822.165527,245.666550 822.165527,234.612778 
	C821.651306,234.487091 821.137085,234.361404 820.622803,234.235718 
	C816.455994,242.957458 811.704102,251.459671 808.321167,260.475555 
	C805.934448,266.836243 802.727783,269.179901 795.987854,268.445709 
	C789.598572,267.749725 783.073975,268.296082 776.241394,268.296082 
	C775.347412,246.187881 774.469604,224.481995 773.579041,202.458496 
	C782.717224,202.458496 791.124634,202.458496 800.048340,202.458496 
	C799.488464,212.206482 798.938416,221.783478 798.486816,231.603561 
	C798.622986,232.123245 798.660583,232.399857 798.698242,232.676483 
	C798.789001,232.441208 798.879761,232.205933 798.970520,231.970673 
z"/>
<path fill="#FAFAFA" opacity="1.000000" stroke="none" 
	d="
M624.359253,229.302063 
	C626.248047,221.114151 627.937744,213.308746 629.904602,205.573792 
	C630.214417,204.355270 631.747375,202.584824 632.767822,202.548248 
	C640.061584,202.286819 647.369141,202.408661 654.895325,202.408661 
	C654.987305,204.113266 655.063416,205.524368 655.104553,206.286743 
	C660.991089,204.405167 666.827026,202.195572 672.847900,200.762177 
	C675.804382,200.058319 679.162903,200.434677 682.236694,200.943268 
	C692.499573,202.641327 697.335999,208.996140 695.417236,219.447525 
	C692.955688,232.855286 689.813904,246.144852 686.709595,259.425598 
	C684.601318,268.445343 684.404968,268.395447 675.257751,268.380676 
	C669.971130,268.372131 664.684448,268.379089 658.739929,268.379089 
	C661.354370,256.661926 663.841553,245.514160 666.329102,234.366455 
	C666.546570,233.391861 666.801880,232.424088 666.977234,231.442001 
	C667.668579,227.569443 669.440735,223.265839 663.635986,221.666336 
	C658.084167,220.136520 652.163208,222.917252 650.839355,228.178635 
	C648.933594,235.753220 647.580444,243.467056 645.999756,251.123169 
	C644.859863,256.644012 643.733582,262.167664 642.540894,267.984467 
	C633.681946,267.984467 624.966003,267.984467 615.768066,267.984467 
	C618.653198,254.967041 621.452393,242.337418 624.359253,229.302063 
z"/>
<path fill="#FAFAFA" opacity="1.000000" stroke="none" 
	d="
M744.323975,201.580719 
	C759.520630,203.981598 767.294067,213.170685 766.959167,228.088425 
	C766.850952,232.910492 766.404602,237.724976 766.072266,243.213409 
	C752.409973,243.213409 738.882080,243.213409 725.312744,243.213409 
	C726.121155,252.013290 734.469788,253.714386 749.913086,248.623245 
	C752.810364,253.467072 755.774536,258.422699 759.188110,264.129669 
	C755.606445,265.236511 752.271301,266.387665 748.870972,267.294952 
	C739.371033,269.829651 729.775513,269.982788 720.172852,267.974243 
	C706.041504,265.018433 697.811462,254.457123 698.249084,240.009430 
	C699.069519,212.921112 715.794617,198.815063 744.323975,201.580719 
M733.662659,217.833984 
	C731.733337,219.903915 729.803955,221.973862 727.874634,224.043793 
	C728.244995,224.394012 728.615356,224.744232 728.985718,225.094452 
	C734.380981,225.094452 739.776245,225.094452 745.161804,225.094452 
	C745.350037,218.069061 742.307495,216.009583 733.662659,217.833984 
z"/>
<path fill="#F9F9F9" opacity="1.000000" stroke="none" 
	d="
M611.012451,250.417938 
	C610.773621,263.962952 600.902649,271.873901 589.464661,268.125183 
	C581.176331,265.408722 577.548828,257.478516 580.902893,249.407776 
	C583.764771,242.521286 590.224121,238.590012 597.994751,239.005402 
	C604.620544,239.359589 608.831543,242.922241 611.012451,250.417938 
z"/>
<path fill="#040404" opacity="1.000000" stroke="none" 
	d="
M149.917786,204.817535 
	C140.643005,219.243362 117.321930,218.248474 107.520569,210.625198 
	C105.104698,208.746201 103.694809,206.911148 104.524872,203.492081 
	C106.562195,195.100250 108.055794,186.577347 110.045250,178.172760 
	C112.596962,167.392807 120.925507,161.644653 133.118347,161.908493 
	C144.661728,162.158264 152.966507,168.614990 155.000580,179.225769 
	C156.730728,188.251144 155.134918,196.737854 149.917786,204.817535 
z"/>
<path fill="#040404" opacity="1.000000" stroke="none" 
	d="
M318.418396,200.285400 
	C311.041382,214.921677 295.933685,220.465973 281.687073,214.172653 
	C276.338989,211.810181 273.000916,207.762451 272.256805,202.188141 
	C270.715637,190.642776 273.191742,179.973419 280.864655,170.896011 
	C286.394897,164.353470 293.506348,161.410843 302.096222,161.978973 
	C313.533813,162.735458 321.937073,170.913757 321.754547,182.413177 
	C321.661530,188.273499 319.707733,194.104279 318.418396,200.285400 
z"/>
<path fill="#020202" opacity="1.000000" stroke="none" 
	d="
M798.995239,231.998779 
	C798.879761,232.205933 798.789001,232.441208 798.698242,232.676483 
	C798.660583,232.399857 798.622986,232.123245 798.824463,231.967224 
	C799.063477,232.087814 799.019897,232.026886 798.995239,231.998779 
z"/>
<path fill="#0E0E0E" opacity="1.000000" stroke="none" 
	d="
M734.042114,217.699768 
	C742.307495,216.009583 745.350037,218.069061 745.161804,225.094452 
	C739.776245,225.094452 734.380981,225.094452 728.985718,225.094452 
	C728.615356,224.744232 728.244995,224.394012 727.874634,224.043793 
	C729.803955,221.973862 731.733337,219.903915 734.042114,217.699768 
z"/>
</svg>