<svg version="1.1" id="Layer_1" xmlns="http://www.w3.org/2000/svg" xmlns:xlink="http://www.w3.org/1999/xlink" x="0px" y="0px"
	 width="100%" viewBox="0 0 1073 509" enable-background="new 0 0 1073 509" xml:space="preserve">
<path fill="#FFFFFF" opacity="1.000000" stroke="none" 
	d="
M659.000000,510.000000 
	C439.333344,510.000000 220.166672,510.000000 1.000000,510.000000 
	C1.000000,340.333344 1.000000,170.666672 1.000000,1.000000 
	C358.666656,1.000000 716.333313,1.000000 1074.000000,1.000000 
	C1074.000000,170.666672 1074.000000,340.333344 1074.000000,510.000000 
	C935.833313,510.000000 797.666687,510.000000 659.000000,510.000000 
M170.859818,200.880112 
	C170.725540,200.760696 170.591248,200.641281 170.388718,199.720230 
	C175.215500,178.229553 180.042267,156.738876 184.892746,135.142685 
	C166.011414,135.142685 147.764023,135.142685 129.503372,135.142685 
	C113.103447,210.604126 96.769241,285.733734 80.498215,360.877045 
	C80.220398,362.160065 80.706627,363.608582 80.836311,364.979858 
	C82.190994,364.771637 83.707085,364.887817 84.875969,364.306213 
	C100.510971,356.526550 115.932098,348.292145 131.772141,340.961060 
	C138.739044,337.736603 143.447433,333.929260 143.483505,325.813202 
	C143.490402,324.260101 144.160797,322.709930 144.750015,320.200409 
	C146.104568,321.771973 146.904160,322.759796 147.766068,323.689880 
	C153.333237,329.697357 159.983124,334.181213 167.964325,335.963257 
	C193.737305,341.717957 216.345490,335.527618 234.511215,316.211426 
	C258.483154,290.721252 264.245697,259.720062 257.960449,226.535004 
	C252.010193,195.118637 224.041702,178.903519 193.453522,188.447388 
	C185.495819,190.930267 178.622559,196.888763 170.859818,200.880112 
M400.826874,315.333527 
	C411.735870,305.179993 418.860992,292.752625 422.616943,278.417053 
	C427.544098,259.611328 428.934052,240.734161 419.743774,222.837372 
	C408.316162,200.583633 389.084106,189.337204 364.677460,186.435104 
	C303.920715,179.210754 270.249359,219.056274 264.387756,260.590515 
	C259.727173,293.614471 276.639832,323.118530 306.835632,333.616882 
	C319.169159,337.904938 331.973633,338.547699 344.843994,337.848206 
	C365.753540,336.711792 384.593292,330.134064 400.826874,315.333527 
M535.009766,241.524155 
	C532.391235,253.731674 529.488403,265.887390 527.252075,278.164520 
	C525.706116,286.651337 524.348877,295.294525 524.215942,303.888062 
	C524.018188,316.671875 530.085205,326.501251 541.958313,331.572906 
	C561.159302,339.774628 580.877380,339.107025 600.587036,333.263550 
	C601.662781,332.944641 603.104614,331.350098 603.117004,330.334015 
	C603.284851,316.556732 603.229797,302.776703 603.229797,288.950226 
	C599.399109,288.950226 595.911926,289.053589 592.432739,288.929474 
	C584.322998,288.640228 581.574341,285.528961 582.635742,277.552399 
	C583.359558,272.112976 584.400635,266.711884 585.424316,261.317261 
	C586.960815,253.219620 588.606384,245.142715 590.224121,236.963379 
	C600.446045,236.963379 610.083801,236.963379 619.975098,236.963379 
	C623.410461,220.938889 626.810425,205.079330 630.349487,188.571106 
	C620.534119,188.571106 611.344849,188.571106 601.712524,188.571106 
	C606.472656,167.408966 611.094849,146.860321 615.940369,125.318581 
	C613.351746,126.236145 611.532471,126.789497 609.784485,127.514778 
	C593.200684,134.395859 576.671448,141.411469 560.020447,148.125305 
	C556.386169,149.590652 554.684204,151.602921 553.952515,155.483704 
	C551.864990,166.555695 549.297302,177.537155 546.861938,188.816498 
	C539.231628,188.816498 532.114380,188.816498 524.795044,188.816498 
	C521.198792,204.990509 517.676208,220.833160 514.022034,237.267700 
	C521.575256,237.267700 528.602112,237.267700 535.805969,237.267700 
	C535.511353,238.759232 535.319641,239.729996 535.009766,241.524155 
M456.500000,335.050598 
	C464.290741,335.050598 472.081482,335.050598 479.941986,335.050598 
	C494.379852,267.847687 508.731720,201.044952 523.151794,133.924744 
	C504.645813,133.924744 486.397003,133.924744 467.998383,133.924744 
	C453.588654,200.927002 439.220490,267.735901 424.743866,335.049164 
	C435.236511,335.049164 445.368256,335.049164 456.500000,335.050598 
M840.399780,274.766083 
	C834.127136,274.766083 827.854492,274.766083 821.150330,274.766083 
	C822.326965,297.114227 823.475525,318.929749 824.628845,340.834686 
	C829.399231,340.834686 833.528076,340.172607 837.360229,340.958130 
	C849.117981,343.368134 855.152893,338.145081 858.736511,327.378235 
	C861.090027,320.307129 865.101501,313.787903 868.370422,307.021515 
	C868.914673,307.111084 869.458923,307.200623 870.003174,307.290192 
	C870.003174,318.357391 870.003174,329.424622 870.003174,340.880127 
	C879.199768,340.880127 887.336548,340.998932 895.461853,340.747925 
	C896.637024,340.711578 898.170837,339.122681 898.840942,337.876892 
	C909.248596,318.529755 919.548767,299.124695 929.845398,279.718018 
	C930.651611,278.198425 931.247986,276.567474 932.095764,274.638214 
	C924.000732,274.638214 916.521118,274.806671 909.055542,274.556213 
	C906.023071,274.454468 904.632263,275.638947 903.490845,278.224091 
	C900.064941,285.983093 896.465271,293.666473 892.844910,301.337585 
	C892.164612,302.779083 891.075989,304.027832 890.175720,305.365509 
	C889.773132,305.217499 889.370544,305.069519 888.967957,304.921509 
	C888.487000,294.930298 888.006104,284.939087 887.512329,274.681427 
	C880.151611,274.681427 873.333679,274.516998 866.536621,274.820343 
	C865.179504,274.880951 863.453125,276.460907 862.661865,277.794189 
	C857.991211,285.664764 853.578918,293.688232 848.994934,301.611176 
	C848.206665,302.973541 847.011047,304.100220 845.224426,306.291626 
	C846.130005,294.946869 846.915100,285.111267 847.741333,274.760895 
	C845.277222,274.760895 843.321655,274.760895 840.399780,274.766083 
M709.429749,293.910736 
	C715.027832,294.841522 716.058838,296.118958 715.318481,301.405457 
	C715.064941,303.215820 714.670776,305.009583 714.274902,306.796356 
	C711.796997,317.982147 709.300476,329.163788 706.709656,340.798065 
	C712.292969,340.798065 717.428406,340.795410 722.563843,340.798645 
	C732.258362,340.804810 732.457642,340.849274 734.506775,331.365143 
	C737.561646,317.225952 740.851624,303.100586 742.976074,288.810883 
	C744.304443,279.876190 739.582764,274.638519 730.690735,273.066681 
	C727.145203,272.439941 723.244995,272.046997 719.826111,272.872375 
	C714.044312,274.268250 708.516846,276.717590 703.016785,278.676178 
	C702.971497,277.766449 702.898743,276.304565 702.830444,274.932251 
	C694.509338,274.932251 686.432251,274.932251 678.342102,274.932251 
	C673.614685,296.990082 668.957886,318.718262 664.254395,340.664551 
	C673.007874,340.664551 681.446533,340.664551 690.415344,340.664551 
	C692.860901,328.382904 695.299927,316.170746 697.722229,303.955353 
	C699.159790,296.705719 701.082031,294.915009 709.429749,293.910736 
M754.591309,333.928772 
	C767.011780,343.594421 794.173950,344.914795 806.274963,336.259186 
	C804.916992,333.835907 803.555603,331.375397 802.164246,328.931976 
	C800.707703,326.373962 799.222473,323.832275 797.808472,321.385010 
	C782.662598,326.187439 773.371521,324.088043 772.014221,315.296326 
	C785.823914,315.296326 799.563843,315.296326 813.721802,315.296326 
	C814.074768,310.684998 814.565796,306.573639 814.674500,302.452240 
	C815.148071,284.490387 805.878235,274.355225 787.948914,273.176636 
	C785.296814,273.002289 782.596741,272.943878 779.961609,273.228394 
	C766.140686,274.720581 754.717590,280.234131 749.649170,294.052124 
	C744.640564,307.707489 743.130981,321.378693 754.591309,333.928772 
M638.328247,312.635437 
	C636.875916,313.429932 635.305481,314.065857 633.990295,315.044647 
	C625.232056,321.562958 625.586853,334.620819 634.613953,339.867859 
	C640.814697,343.472076 648.187805,342.523529 653.431641,337.446899 
	C658.797180,332.252380 660.282288,323.293365 656.779419,317.250977 
	C653.705505,311.948486 647.567932,310.235931 638.328247,312.635437 
z"/>
<path fill="#020202" opacity="1.000000" stroke="none" 
	d="
M171.251190,201.250916 
	C178.622559,196.888763 185.495819,190.930267 193.453522,188.447388 
	C224.041702,178.903519 252.010193,195.118637 257.960449,226.535004 
	C264.245697,259.720062 258.483154,290.721252 234.511215,316.211426 
	C216.345490,335.527618 193.737305,341.717957 167.964325,335.963257 
	C159.983124,334.181213 153.333237,329.697357 147.766068,323.689880 
	C146.904160,322.759796 146.104568,321.771973 144.750015,320.200409 
	C144.160797,322.709930 143.490402,324.260101 143.483505,325.813202 
	C143.447433,333.929260 138.739044,337.736603 131.772141,340.961060 
	C115.932098,348.292145 100.510971,356.526550 84.875969,364.306213 
	C83.707085,364.887817 82.190994,364.771637 80.836311,364.979858 
	C80.706627,363.608582 80.220398,362.160065 80.498215,360.877045 
	C96.769241,285.733734 113.103447,210.604126 129.503372,135.142685 
	C147.764023,135.142685 166.011414,135.142685 184.892746,135.142685 
	C180.042267,156.738876 175.215500,178.229553 170.262238,200.376160 
	C170.199860,201.329437 170.263962,201.626785 170.328049,201.924133 
	C170.635757,201.699707 170.943481,201.475311 171.251190,201.250916 
M202.368073,267.647858 
	C202.591614,262.701080 203.451859,257.682922 202.906937,252.822281 
	C201.750717,242.509155 193.007294,235.686417 181.385193,235.223801 
	C170.044586,234.772369 160.395981,241.127518 158.160400,250.819672 
	C156.145279,259.556000 154.230804,268.328888 152.760849,277.166962 
	C152.444611,279.068298 153.610657,282.126282 155.133499,283.283936 
	C172.289185,296.325806 195.714340,288.826965 202.368073,267.647858 
z"/>
<path fill="#020202" opacity="1.000000" stroke="none" 
	d="
M400.569763,315.575378 
	C384.593292,330.134064 365.753540,336.711792 344.843994,337.848206 
	C331.973633,338.547699 319.169159,337.904938 306.835632,333.616882 
	C276.639832,323.118530 259.727173,293.614471 264.387756,260.590515 
	C270.249359,219.056274 303.920715,179.210754 364.677460,186.435104 
	C389.084106,189.337204 408.316162,200.583633 419.743774,222.837372 
	C428.934052,240.734161 427.544098,259.611328 422.616943,278.417053 
	C418.860992,292.752625 411.735870,305.179993 400.569763,315.575378 
M364.929138,242.636841 
	C354.082916,231.931015 337.551941,233.198105 327.754578,245.608978 
	C321.465302,253.575928 319.532654,262.844818 319.900330,272.822601 
	C320.156067,279.762787 323.444702,284.325500 329.644745,287.185791 
	C341.170105,292.502991 354.089233,289.720673 362.452026,280.492157 
	C369.780457,272.405121 373.209229,251.995911 364.929138,242.636841 
z"/>
<path fill="#020202" opacity="1.000000" stroke="none" 
	d="
M535.068848,241.112457 
	C535.319641,239.729996 535.511353,238.759232 535.805969,237.267700 
	C528.602112,237.267700 521.575256,237.267700 514.022034,237.267700 
	C517.676208,220.833160 521.198792,204.990509 524.795044,188.816498 
	C532.114380,188.816498 539.231628,188.816498 546.861938,188.816498 
	C549.297302,177.537155 551.864990,166.555695 553.952515,155.483704 
	C554.684204,151.602921 556.386169,149.590652 560.020447,148.125305 
	C576.671448,141.411469 593.200684,134.395859 609.784485,127.514778 
	C611.532471,126.789497 613.351746,126.236145 615.940369,125.318581 
	C611.094849,146.860321 606.472656,167.408966 601.712524,188.571106 
	C611.344849,188.571106 620.534119,188.571106 630.349487,188.571106 
	C626.810425,205.079330 623.410461,220.938889 619.975098,236.963379 
	C610.083801,236.963379 600.446045,236.963379 590.224121,236.963379 
	C588.606384,245.142715 586.960815,253.219620 585.424316,261.317261 
	C584.400635,266.711884 583.359558,272.112976 582.635742,277.552399 
	C581.574341,285.528961 584.322998,288.640228 592.432739,288.929474 
	C595.911926,289.053589 599.399109,288.950226 603.229797,288.950226 
	C603.229797,302.776703 603.284851,316.556732 603.117004,330.334015 
	C603.104614,331.350098 601.662781,332.944641 600.587036,333.263550 
	C580.877380,339.107025 561.159302,339.774628 541.958313,331.572906 
	C530.085205,326.501251 524.018188,316.671875 524.215942,303.888062 
	C524.348877,295.294525 525.706116,286.651337 527.252075,278.164520 
	C529.488403,265.887390 532.391235,253.731674 535.068848,241.112457 
z"/>
<path fill="#020202" opacity="1.000000" stroke="none" 
	d="
M456.000000,335.049866 
	C445.368256,335.049164 435.236511,335.049164 424.743866,335.049164 
	C439.220490,267.735901 453.588654,200.927002 467.998383,133.924744 
	C486.397003,133.924744 504.645813,133.924744 523.151794,133.924744 
	C508.731720,201.044952 494.379852,267.847687 479.941986,335.050598 
	C472.081482,335.050598 464.290741,335.050598 456.000000,335.049866 
z"/>
<path fill="#050505" opacity="1.000000" stroke="none" 
	d="
M840.882935,274.763489 
	C843.321655,274.760895 845.277222,274.760895 847.741333,274.760895 
	C846.915100,285.111267 846.130005,294.946869 845.224426,306.291626 
	C847.011047,304.100220 848.206665,302.973541 848.994934,301.611176 
	C853.578918,293.688232 857.991211,285.664764 862.661865,277.794189 
	C863.453125,276.460907 865.179504,274.880951 866.536621,274.820343 
	C873.333679,274.516998 880.151611,274.681427 887.512329,274.681427 
	C888.006104,284.939087 888.487000,294.930298 888.967957,304.921509 
	C889.370544,305.069519 889.773132,305.217499 890.175720,305.365509 
	C891.075989,304.027832 892.164612,302.779083 892.844910,301.337585 
	C896.465271,293.666473 900.064941,285.983093 903.490845,278.224091 
	C904.632263,275.638947 906.023071,274.454468 909.055542,274.556213 
	C916.521118,274.806671 924.000732,274.638214 932.095764,274.638214 
	C931.247986,276.567474 930.651611,278.198425 929.845398,279.718018 
	C919.548767,299.124695 909.248596,318.529755 898.840942,337.876892 
	C898.170837,339.122681 896.637024,340.711578 895.461853,340.747925 
	C887.336548,340.998932 879.199768,340.880127 870.003174,340.880127 
	C870.003174,329.424622 870.003174,318.357391 870.003174,307.290192 
	C869.458923,307.200623 868.914673,307.111084 868.370422,307.021515 
	C865.101501,313.787903 861.090027,320.307129 858.736511,327.378235 
	C855.152893,338.145081 849.117981,343.368134 837.360229,340.958130 
	C833.528076,340.172607 829.399231,340.834686 824.628845,340.834686 
	C823.475525,318.929749 822.326965,297.114227 821.150330,274.766083 
	C827.854492,274.766083 834.127136,274.766083 840.882935,274.763489 
z"/>
<path fill="#050505" opacity="1.000000" stroke="none" 
	d="
M709.008423,293.911072 
	C701.082031,294.915009 699.159790,296.705719 697.722229,303.955353 
	C695.299927,316.170746 692.860901,328.382904 690.415344,340.664551 
	C681.446533,340.664551 673.007874,340.664551 664.254395,340.664551 
	C668.957886,318.718262 673.614685,296.990082 678.342102,274.932251 
	C686.432251,274.932251 694.509338,274.932251 702.830444,274.932251 
	C702.898743,276.304565 702.971497,277.766449 703.016785,278.676178 
	C708.516846,276.717590 714.044312,274.268250 719.826111,272.872375 
	C723.244995,272.046997 727.145203,272.439941 730.690735,273.066681 
	C739.582764,274.638519 744.304443,279.876190 742.976074,288.810883 
	C740.851624,303.100586 737.561646,317.225952 734.506775,331.365143 
	C732.457642,340.849274 732.258362,340.804810 722.563843,340.798645 
	C717.428406,340.795410 712.292969,340.798065 706.709656,340.798065 
	C709.300476,329.163788 711.796997,317.982147 714.274902,306.796356 
	C714.670776,305.009583 715.064941,303.215820 715.318481,301.405457 
	C716.058838,296.118958 715.027832,294.841522 709.008423,293.911072 
z"/>
<path fill="#040405" opacity="1.000000" stroke="none" 
	d="
M754.334229,333.681213 
	C743.130981,321.378693 744.640564,307.707489 749.649170,294.052124 
	C754.717590,280.234131 766.140686,274.720581 779.961609,273.228394 
	C782.596741,272.943878 785.296814,273.002289 787.948914,273.176636 
	C805.878235,274.355225 815.148071,284.490387 814.674500,302.452240 
	C814.565796,306.573639 814.074768,310.684998 813.721802,315.296326 
	C799.563843,315.296326 785.823914,315.296326 772.014221,315.296326 
	C773.371521,324.088043 782.662598,326.187439 797.808472,321.385010 
	C799.222473,323.832275 800.707703,326.373962 802.164246,328.931976 
	C803.555603,331.375397 804.916992,333.835907 806.274963,336.259186 
	C794.173950,344.914795 767.011780,343.594421 754.334229,333.681213 
M782.657715,297.676788 
	C786.082642,297.676788 789.507629,297.676788 792.863770,297.676788 
	C793.434937,291.883911 791.438904,289.434845 786.293884,289.030731 
	C780.070435,288.541840 776.684143,291.314972 776.495178,297.681488 
	C778.252258,297.681488 779.997986,297.681488 782.657715,297.676788 
z"/>
<path fill="#060606" opacity="1.000000" stroke="none" 
	d="
M638.680908,312.467407 
	C647.567932,310.235931 653.705505,311.948486 656.779419,317.250977 
	C660.282288,323.293365 658.797180,332.252380 653.431641,337.446899 
	C648.187805,342.523529 640.814697,343.472076 634.613953,339.867859 
	C625.586853,334.620819 625.232056,321.562958 633.990295,315.044647 
	C635.305481,314.065857 636.875916,313.429932 638.680908,312.467407 
z"/>
<path fill="#FCFCFC" opacity="1.000000" stroke="none" 
	d="
M202.261444,268.041199 
	C195.714340,288.826965 172.289185,296.325806 155.133499,283.283936 
	C153.610657,282.126282 152.444611,279.068298 152.760849,277.166962 
	C154.230804,268.328888 156.145279,259.556000 158.160400,250.819672 
	C160.395981,241.127518 170.044586,234.772369 181.385193,235.223801 
	C193.007294,235.686417 201.750717,242.509155 202.906937,252.822281 
	C203.451859,257.682922 202.591614,262.701080 202.261444,268.041199 
z"/>
<path fill="#FFFFFF" opacity="1.000000" stroke="none" 
	d="
M171.055511,201.065506 
	C170.943481,201.475311 170.635757,201.699707 170.328049,201.924133 
	C170.263962,201.626785 170.199860,201.329437 170.296356,200.776978 
	C170.591248,200.641281 170.725540,200.760696 171.055511,201.065506 
z"/>
<path fill="#FBFBFB" opacity="1.000000" stroke="none" 
	d="
M365.168762,242.914154 
	C373.209229,251.995911 369.780457,272.405121 362.452026,280.492157 
	C354.089233,289.720673 341.170105,292.502991 329.644745,287.185791 
	C323.444702,284.325500 320.156067,279.762787 319.900330,272.822601 
	C319.532654,262.844818 321.465302,253.575928 327.754578,245.608978 
	C337.551941,233.198105 354.082916,231.931015 365.168762,242.914154 
z"/>
<path fill="#E7E7E8" opacity="1.000000" stroke="none" 
	d="
M782.200745,297.679138 
	C779.997986,297.681488 778.252258,297.681488 776.495178,297.681488 
	C776.684143,291.314972 780.070435,288.541840 786.293884,289.030731 
	C791.438904,289.434845 793.434937,291.883911 792.863770,297.676788 
	C789.507629,297.676788 786.082642,297.676788 782.200745,297.679138 
z"/>
</svg>